HIERARCHY
ROOT Hips
{
	OFFSET -3.958830 18.904000 13.208200
	CHANNELS 6 Xposition Yposition Zposition Zrotation Yrotation Xrotation 
	JOINT LHipJoint
	{
		OFFSET 0.000000 0.000000 0.000000
		CHANNELS 3 Zrotation Yrotation Xrotation
		JOINT LeftUpLeg
		{
			OFFSET 1.800000 -1.400000 0.085000
			CHANNELS 3 Zrotation Yrotation Xrotation
			JOINT LeftLeg
			{
				OFFSET 2.215000 -6.000000 0.000000
				CHANNELS 3 Zrotation Yrotation Xrotation
				JOINT LeftFoot
				{
					OFFSET 2.500000 -6.900000 0.000000
					CHANNELS 3 Zrotation Yrotation Xrotation
					JOINT LeftToeBase
					{
						OFFSET 0.200000 -0.500000 1.950000
						CHANNELS 3 Zrotation Yrotation Xrotation
						End Site
						{
							OFFSET 0.000000 0.000000 0.000000
						}
					}
				}
			}
		}
	}
	JOINT RHipJoint
	{
		OFFSET 0.000000 0.000000 0.000000
		CHANNELS 3 Zrotation Yrotation Xrotation
		JOINT RightUpLeg
		{
			OFFSET -1.800000 -1.400000 0.085000
			CHANNELS 3 Zrotation Yrotation Xrotation
			JOINT RightLeg
			{
				OFFSET -2.215000 -6.000000 0.000000
				CHANNELS 3 Zrotation Yrotation Xrotation
				JOINT RightFoot
				{
					OFFSET -2.500000 -6.900000 0.000000
					CHANNELS 3 Zrotation Yrotation Xrotation
					JOINT RightToeBase
					{
						OFFSET -0.200000 -0.500000 1.950000
						CHANNELS 3 Zrotation Yrotation Xrotation
						End Site
						{
							OFFSET 0.000000 0.000000 0.000000
						}
					}
				}
			}
		}
	}
	JOINT LowerBack
	{
		OFFSET 0.000000 0.000000 0.000000
		CHANNELS 3 Zrotation Yrotation Xrotation
		JOINT Spine
		{
			OFFSET -0.087000 1.940000 -0.288900
			CHANNELS 3 Zrotation Yrotation Xrotation
			JOINT Spine1
			{
				OFFSET 0.000000 1.950000 0.060000
				CHANNELS 3 Zrotation Yrotation Xrotation
				JOINT Neck
				{
					OFFSET 0.000000 0.000000 0.000000
					CHANNELS 3 Zrotation Yrotation Xrotation
					JOINT Neck1
					{
						OFFSET 0.000000 1.600000 0.340000
						CHANNELS 3 Zrotation Yrotation Xrotation
						JOINT Head
						{
							OFFSET 0.000000 1.667000 -0.240000
							CHANNELS 3 Zrotation Yrotation Xrotation
							End Site
							{
								OFFSET 0.000000 0.000000 0.000000
							}
						}
					}
				}
				JOINT LeftShoulder
				{
					OFFSET 0.000000 0.000000 0.000000
					CHANNELS 3 Zrotation Yrotation Xrotation
					JOINT LeftArm
					{
						OFFSET 2.700000 1.550000 -0.730000
						CHANNELS 3 Zrotation Yrotation Xrotation
						JOINT LeftForeArm
						{
							OFFSET 5.450000 0.000000 0.000000
							CHANNELS 3 Zrotation Yrotation Xrotation
							JOINT LeftHand
							{
								OFFSET 3.450000 0.000000 0.000000
								CHANNELS 3 Zrotation Yrotation Xrotation
								JOINT LeftHandIndex1
								{
									OFFSET 0.750000 0.000000 0.000000
									CHANNELS 3 Zrotation Yrotation Xrotation
									End Site
									{
										OFFSET 0.000000 0.000000 0.000000
									}
								}
							}
						}
					}
				}
				JOINT RightShoulder
				{
					OFFSET 0.000000 0.000000 0.000000
					CHANNELS 3 Zrotation Yrotation Xrotation
					JOINT RightArm
					{
						OFFSET -2.700000 1.550000 -0.730000
						CHANNELS 3 Zrotation Yrotation Xrotation
						JOINT RightForeArm
						{
							OFFSET -5.450000 0.000000 0.000000
							CHANNELS 3 Zrotation Yrotation Xrotation
							JOINT RightHand
							{
								OFFSET -3.450000 0.000000 0.000000
								CHANNELS 3 Zrotation Yrotation Xrotation
								JOINT RightHandIndex1
								{
									OFFSET -0.750000 0.000000 0.000000
									CHANNELS 3 Zrotation Yrotation Xrotation
									End Site
									{
										OFFSET 0.000000 0.000000 0.000000
									}
								}
							}
						}
					}
				}
			}
		}
	}
}
MOTION
Frames: 9
Frame Time: 0.016667
1.165840 17.663330 -3.748030 1.612313 18.649344 6.894949 -15.079420 13.027237 3.109040 -1.426137 -2.280002 -14.986577 -8.141500 5.445766 12.507599 -0.456528 3.442860 3.336733 0.409670 0.360070 0.277970 18.346140 -10.820750 2.950110 -8.566061 3.534914 -27.282311 9.327597 -9.990546 36.493687 -0.488708 -5.587775 2.254877 0.330660 0.019610 0.052180 -4.214913 -1.462235 -7.585477 11.882269 -2.210731 16.700682 -3.558260 -0.966567 9.921343 -0.050226 -4.581726 -7.195666 -10.512138 -1.907023 32.632827 -1.191150 -3.713930 -15.045010 -21.919569 -5.940635 1.639199 -41.434752 -14.858165 4.439702 -113.801243 -62.346111 77.208717 -3.799817 3.282374 0.266300 -0.007870 0.055830 0.084240 21.563601 8.836446 4.546263 51.180574 10.612025 -2.301082 91.752290 70.953925 54.918784 3.020545 -0.816670 -0.105570 0.253600 -0.054350 -0.117430 
1.161980 17.654570 -3.750000 1.932073 18.876634 7.554320 -15.068531 12.989336 3.157404 -1.927605 -2.301506 -15.070631 -8.089416 5.212165 11.441816 -0.438512 3.310655 3.390835 0.402050 0.359500 0.261780 18.351177 -10.913487 2.851536 -8.378402 3.031495 -26.130778 9.527343 -9.342534 33.309170 -0.391957 -5.129951 2.427521 0.321070 0.026060 0.057840 -4.248421 -1.308667 -7.524466 11.900588 -1.974428 15.685493 -4.113770 -0.753480 9.923595 0.210063 -4.245736 -7.265856 -9.696308 -2.042880 32.096028 -1.285950 -3.508350 -14.042180 -22.125465 -5.773477 1.767866 -42.139558 -14.171384 4.372819 -112.563203 -62.285164 75.866389 -3.809782 3.321668 0.232070 0.008320 0.042110 0.091290 21.241773 8.434382 4.665564 51.461057 9.590812 -2.494996 91.394701 70.204153 53.989146 2.971006 -0.961008 -0.087950 0.227690 -0.062050 -0.105390 
1.149730 17.659670 -3.749910 2.046966 19.037210 7.963059 -15.047016 12.923136 3.188356 -1.882317 -2.312729 -15.042783 -8.700023 5.184805 10.567670 -0.423272 3.290344 3.400018 0.391170 0.348650 0.254460 18.370726 -10.973132 2.804405 -8.108521 2.771877 -25.324184 9.797114 -8.944261 31.122760 -0.339048 -4.838179 2.535912 0.310550 0.023570 0.058600 -4.311629 -1.128146 -7.502088 12.187429 -1.802928 15.046340 -4.962423 -0.526297 9.901291 0.533035 -3.942300 -7.349027 -9.034007 -2.240027 31.941266 -1.357250 -3.448280 -13.632100 -22.237973 -5.657677 1.817795 -42.429998 -13.480210 4.066235 -110.424522 -62.104095 73.430525 -3.814519 3.343937 0.224270 0.010850 0.038700 0.088650 20.681735 8.084741 4.839996 52.060923 8.649903 -2.796586 90.537620 69.621214 52.708608 2.928029 -1.072716 -0.083960 0.214360 -0.061840 -0.104240 
1.134450 17.676350 -3.754130 1.984566 19.081626 8.322948 -15.026937 12.871875 3.195320 -1.893968 -2.342381 -15.250395 -8.578223 5.015508 9.887929 -0.441253 3.218762 3.431134 0.375940 0.327040 0.249550 18.390295 -11.012759 2.795707 -7.699452 2.642548 -24.863899 10.046608 -8.595508 29.264752 -0.294856 -4.588984 2.630666 0.300960 0.030470 0.057190 -4.369196 -0.976851 -7.483896 12.504706 -1.677774 14.574622 -5.758492 -0.307803 9.750774 0.837121 -3.647902 -7.385959 -8.350973 -2.556913 31.534178 -1.386310 -3.447760 -13.506320 -22.410894 -5.600763 1.807218 -42.764179 -13.098291 3.876339 -108.260485 -62.135353 71.262444 -3.829648 3.338843 0.226920 0.016120 0.032130 0.083880 20.216292 7.768889 4.985672 52.472487 7.711595 -3.109309 87.190319 68.818770 49.431895 2.833587 -1.247862 -0.093830 0.216490 -0.053680 -0.108960 
1.112160 17.690690 -3.754600 1.924453 19.040046 8.568393 -15.016074 12.841879 3.188586 -1.780892 -2.326584 -15.326690 -8.368360 4.871240 9.309137 -0.451726 3.166860 3.457999 0.348060 0.287620 0.241010 18.399658 -11.025496 2.810509 -7.424988 2.590672 -24.453311 10.611183 -8.443130 27.775285 -0.263561 -4.435243 2.695201 0.278510 0.040200 0.054360 -4.395823 -0.888403 -7.482246 12.603008 -1.510831 14.089725 -6.328661 -0.063141 9.598347 1.099699 -3.423893 -7.561173 -7.913167 -2.997699 31.407287 -1.598680 -3.619020 -13.062950 -22.460182 -5.791533 1.940480 -43.314639 -12.729581 3.673836 -105.643845 -62.082432 68.570492 -3.845814 3.330651 0.229410 0.022690 0.022110 0.074560 19.726442 7.815349 5.271867 52.867855 6.739078 -3.704692 82.473422 68.219881 45.440056 2.735904 -1.398560 -0.105800 0.218400 -0.040190 -0.113750 
1.095420 17.707110 -3.748690 1.870606 18.843110 8.787486 -15.008338 12.823378 3.178895 -1.739497 -2.256476 -15.176475 -8.074660 4.697043 8.565459 -0.450378 3.112015 3.492237 0.325950 0.260040 0.220860 18.408968 -11.042938 2.803237 -7.132235 2.486761 -23.972718 10.826775 -8.205439 26.435215 -0.229427 -4.291680 2.761073 0.263020 0.060980 0.053810 -4.413351 -0.821011 -7.459029 12.579135 -1.386734 13.437459 -6.778545 0.065341 9.495260 1.255742 -3.255057 -7.641828 -7.552202 -3.237678 31.187337 -1.583070 -3.802750 -12.226280 -22.578807 -5.838788 2.007957 -43.675864 -12.432054 3.602672 -103.066428 -61.756928 65.847360 -3.857379 3.349292 0.215950 0.037370 0.004300 0.078230 19.521354 7.740983 5.447114 53.096033 6.000388 -4.049813 79.980907 67.422991 43.133300 2.668664 -1.499405 -0.111580 0.217110 -0.032600 -0.107800 
1.071630 17.724260 -3.743820 1.877826 18.413376 8.926458 -15.011683 12.820656 3.178225 -1.541182 -2.184330 -14.955631 -8.140033 4.625900 7.930976 -0.424340 3.092076 3.508494 0.318410 0.257880 0.204050 18.406908 -11.048545 2.785489 -6.751866 2.361563 -23.483874 10.761473 -7.848038 25.067393 -0.194909 -4.113603 2.837175 0.257620 0.071060 0.049130 -4.390950 -0.804381 -7.435273 12.211824 -1.252178 12.936518 -7.047875 0.180311 9.457801 1.359400 -3.129527 -7.716967 -7.238845 -3.269059 30.831116 -1.197790 -3.958000 -11.616400 -22.760824 -5.843574 2.017703 -43.925866 -12.125130 3.398002 -99.888168 -61.376646 62.649166 -3.850469 3.384613 0.194120 0.042450 -0.007180 0.087020 19.498320 7.699540 5.655766 53.090360 5.290045 -4.075926 83.592551 66.783500 45.113673 2.704487 -1.489267 -0.105080 0.210080 -0.038190 -0.094600 
1.046310 17.736890 -3.737590 1.686699 18.039509 8.969971 -15.023241 12.837099 3.162911 -1.136018 -2.137276 -14.910082 -8.117386 4.599781 7.693280 -0.415726 3.096076 3.509618 0.317190 0.254270 0.197660 18.396220 -11.041460 2.776903 -6.252988 2.302359 -22.938059 10.723627 -7.575931 24.011715 -0.176273 -3.984914 2.888478 0.255260 0.074920 0.052760 -4.344682 -0.834045 -7.407340 11.782852 -1.115191 12.428760 -6.912325 0.277915 9.441473 1.393562 -2.974361 -7.781414 -6.898609 -3.463112 30.449223 -0.936570 -4.137940 -11.351710 -22.564833 -5.823078 2.051603 -44.505126 -12.070247 3.414786 -97.331248 -60.812959 59.919053 -3.838704 3.420994 0.186880 0.044480 -0.012140 0.091560 19.263622 7.612530 5.784084 52.987533 4.673057 -4.311644 82.541855 66.324875 44.017602 2.673345 -1.547808 -0.101740 0.201560 -0.040380 -0.090030 
1.029380 17.744550 -3.730110 1.480851 17.748296 8.958209 -15.027157 12.837974 3.150268 -0.808993 -2.074160 -14.734369 -8.239133 4.594476 7.345124 -0.395346 3.116067 3.509516 0.296120 0.230940 0.172140 18.395221 -11.036233 2.762668 -5.976441 2.179145 -22.281583 10.918568 -7.442793 23.031966 -0.156438 -3.914636 2.927859 0.239910 0.093470 0.051730 -4.326158 -0.845125 -7.382451 11.584347 -1.097695 11.707534 -6.987789 0.259432 9.512833 1.457466 -2.765967 -7.981900 -6.546180 -3.550199 30.432556 -0.447580 -4.353120 -10.545140 -22.002708 -6.012405 2.253553 -45.206968 -12.060325 3.419130 -94.650211 -60.407030 57.273825 -3.834390 3.447961 0.172030 0.054210 -0.028710 0.094350 18.604831 7.644393 5.990666 52.911980 4.121542 -4.575868 79.976043 65.649799 41.786797 2.620068 -1.626348 -0.102420 0.196030 -0.031870 -0.080220 
